<svg width="106" height="21" viewBox="0 0 106 21" xmlns="http://www.w3.org/2000/svg" xmlns:xlink="http://www.w3.org/1999/xlink"><title>ngineered + Datawork</title><defs><path d="M2.96 8.322l-.337.332a.796.796 0 0 1-1.117 0 .772.772 0 0 1-.002-1.103l.337-.33a3.85 3.85 0 0 1-.575-1.37H.79A.783.783 0 0 1 0 5.07c0-.432.354-.78.79-.78h.475c.103-.5.3-.962.576-1.37l-.336-.333a.77.77 0 0 1 .002-1.102.798.798 0 0 1 1.117 0l.336.33c.414-.27.884-.466 1.39-.567v-.47C4.35.35 4.7 0 5.14 0c.437 0 .79.35.79.78v.468c.505.1.975.297 1.39.568l.337-.332a.796.796 0 0 1 1.117 0c.31.305.31.8 0 1.103l-.336.332c.275.408.474.87.576 1.37h.476c.436 0 .79.345.79.78 0 .43-.354.78-.79.78h-.476c-.102.497-.3.96-.576 1.37l.337.33a.77.77 0 0 1 0 1.103.798.798 0 0 1-1.118 0l-.337-.33c-.415.27-.885.466-1.39.567v.47c0 .43-.35.778-.79.778a.785.785 0 0 1-.79-.78V8.89a3.963 3.963 0 0 1-1.39-.568zM5.14 6.24c.655 0 1.186-.525 1.186-1.17 0-.647-.53-1.17-1.186-1.17-.655 0-1.186.523-1.186 1.17 0 .645.53 1.17 1.186 1.17z" id="a"/><path d="M3.98 9.27l-.258.424a.836.836 0 0 1-1.14.28.813.813 0 0 1-.287-1.125l.258-.425A4.08 4.08 0 0 1 1.61 7.17l-.484.12A.83.83 0 0 1 .12 6.693a.82.82 0 0 1 .604-.995l.485-.12a4.025 4.025 0 0 1 .233-1.542l-.43-.255a.812.812 0 0 1-.282-1.124.838.838 0 0 1 1.14-.28l.43.253c.354-.382.783-.7 1.272-.93l-.12-.478a.817.817 0 0 1 .605-.994.832.832 0 0 1 1.008.597l.12.48a4.19 4.19 0 0 1 1.567.23l.257-.424A.836.836 0 0 1 8.15.833c.394.233.52.737.285 1.124l-.257.424c.386.35.708.772.94 1.254l.487-.12a.83.83 0 0 1 1.007.598.82.82 0 0 1-.605.995l-.485.12a4.028 4.028 0 0 1-.235 1.543l.43.254A.81.81 0 0 1 10 8.15a.838.838 0 0 1-1.14.28l-.43-.254c-.353.38-.782.7-1.272.93l.122.477a.817.817 0 0 1-.607.994.832.832 0 0 1-1.007-.597l-.122-.478a4.194 4.194 0 0 1-1.565-.23m1.687-2.675a1.23 1.23 0 0 0 .91-1.492 1.25 1.25 0 0 0-1.514-.897A1.23 1.23 0 0 0 4.155 5.7a1.25 1.25 0 0 0 1.512.897" id="c"/><path d="M5.73 7.565l.062.392a.66.66 0 0 1-.556.754.668.668 0 0 1-.765-.546l-.062-.392A3.36 3.36 0 0 1 3.17 7.48l-.236.32A.673.673 0 0 1 2 7.945a.653.653 0 0 1-.15-.92l.238-.322a3.28 3.28 0 0 1-.665-1.07l-.398.062a.666.666 0 0 1-.764-.55.66.66 0 0 1 .556-.754l.397-.06a3.24 3.24 0 0 1 .297-1.222l-.325-.233a.652.652 0 0 1-.148-.92.675.675 0 0 1 .934-.148l.327.234c.32-.29.69-.51 1.085-.655L3.32.993A.66.66 0 0 1 3.874.24a.668.668 0 0 1 .766.546l.064.393c.42.017.84.113 1.238.292l.236-.322a.673.673 0 0 1 .934-.145c.3.214.366.627.15.92l-.238.322c.295.317.518.68.665 1.07l.397-.062a.666.666 0 0 1 .764.55.66.66 0 0 1-.554.754l-.398.06A3.24 3.24 0 0 1 7.6 5.843l.327.233a.652.652 0 0 1 .147.92.674.674 0 0 1-.933.148l-.325-.234c-.32.29-.69.51-1.085.655m-.362-2.508a.98.98 0 0 0-.222-1.383 1.013 1.013 0 0 0-1.402.22.98.98 0 0 0 .222 1.382c.448.32 1.076.223 1.402-.22" id="e"/></defs><g fill="none" fill-rule="evenodd"><path d="M25.965 7.444h2.103V8.87c.15-.22.316-.426.495-.617a3.215 3.215 0 0 1 1.408-.87c.285-.086.606-.13.966-.13 1.042 0 1.848.32 2.415.956.57.636.853 1.494.853 2.57v5.84H32.1v-5.213c0-.718-.17-1.272-.513-1.66-.34-.388-.825-.582-1.45-.582-.615 0-1.113.2-1.495.6-.383.4-.574.958-.574 1.677v5.18h-2.103V7.443zm14.233 6.674c.36 0 .704-.06 1.034-.182a2.538 2.538 0 0 0 1.443-1.32c.145-.308.217-.647.217-1.018v-.035c0-.382-.072-.727-.217-1.034a2.538 2.538 0 0 0-1.442-1.32 2.967 2.967 0 0 0-1.035-.184c-.37 0-.712.06-1.025.182a2.574 2.574 0 0 0-.826.513c-.237.22-.423.485-.556.792-.132.307-.2.652-.2 1.034v.035c0 .383.07.728.21 1.035.14.307.324.573.556.8.232.225.507.4.826.52.318.122.657.183 1.016.183zm-.174 5.318c-1.53 0-2.896-.365-4.1-1.095l.78-1.58c.488.3.997.538 1.53.712.533.174 1.113.26 1.738.26.94 0 1.657-.237 2.155-.712.5-.475.748-1.176.748-2.102v-.713a4.932 4.932 0 0 1-1.34 1.217c-.508.312-1.14.47-1.893.47a4.216 4.216 0 0 1-2.894-1.14 4.023 4.023 0 0 1-.93-1.346c-.23-.533-.347-1.136-.347-1.808v-.035c0-.672.117-1.277.35-1.816.23-.54.54-.99.928-1.355a4.127 4.127 0 0 1 1.34-.843 4.238 4.238 0 0 1 1.554-.297c.776 0 1.416.154 1.92.46.505.308.936.676 1.295 1.104V7.444h2.103v7.3c0 1.53-.388 2.682-1.164 3.458-.417.417-.942.727-1.573.93-.632.203-1.364.304-2.2.304zm6.882-11.992h2.103v9.177h-2.104V7.445zm-.087-3.406h2.26v2h-2.26v-2zm4.135 3.406h2.103V8.87c.15-.22.316-.426.495-.617a3.215 3.215 0 0 1 1.408-.87c.285-.086.606-.13.965-.13 1.043 0 1.848.32 2.416.956.57.636.853 1.494.853 2.57v5.84H57.09v-5.213c0-.718-.17-1.272-.513-1.66-.342-.388-.825-.582-1.45-.582-.615 0-1.113.2-1.496.6-.38.4-.572.958-.572 1.677v5.18h-2.103V7.443zM67.22 11.39a3.595 3.595 0 0 0-.225-.948 2.425 2.425 0 0 0-.47-.764 2.227 2.227 0 0 0-.703-.513 2.17 2.17 0 0 0-.93-.19c-.648 0-1.184.222-1.607.668-.423.446-.68 1.028-.773 1.747h4.71zm-2.084 5.44c-.66 0-1.277-.117-1.85-.348a4.508 4.508 0 0 1-1.496-.974 4.522 4.522 0 0 1-1-1.503 5 5 0 0 1-.364-1.938v-.034c0-.66.11-1.28.33-1.86.22-.58.53-1.086.93-1.52a4.38 4.38 0 0 1 1.417-1.026 4.294 4.294 0 0 1 1.807-.374c.73 0 1.37.133 1.92.4a3.95 3.95 0 0 1 1.373 1.077c.365.452.64.977.826 1.573a6.32 6.32 0 0 1 .268 2.173c-.006.098-.014.2-.026.304H62.53c.115.753.413 1.33.894 1.73.48.4 1.063.6 1.747.6.522 0 .974-.094 1.356-.28.383-.185.76-.457 1.13-.816l1.234 1.095c-.44.52-.965.937-1.573 1.25-.608.313-1.335.47-2.18.47zm11.783-5.44a3.595 3.595 0 0 0-.227-.948 2.425 2.425 0 0 0-.47-.764 2.227 2.227 0 0 0-.704-.513 2.17 2.17 0 0 0-.93-.19c-.65 0-1.185.222-1.608.668-.423.446-.68 1.028-.773 1.747h4.71zm-2.087 5.44c-.66 0-1.277-.117-1.85-.348a4.508 4.508 0 0 1-1.496-.974 4.522 4.522 0 0 1-1-1.503 5 5 0 0 1-.364-1.938v-.034c0-.66.11-1.28.33-1.86.22-.58.53-1.086.93-1.52A4.38 4.38 0 0 1 72.8 7.626a4.294 4.294 0 0 1 1.807-.374c.73 0 1.37.133 1.92.4A3.95 3.95 0 0 1 77.9 8.73c.365.452.64.977.826 1.573a6.32 6.32 0 0 1 .27 2.173c-.006.098-.015.2-.027.304h-6.744c.116.753.414 1.33.895 1.73.482.4 1.064.6 1.748.6.52 0 .973-.094 1.355-.28.383-.185.76-.457 1.13-.816l1.234 1.095c-.44.52-.965.937-1.573 1.25-.608.313-1.335.47-2.18.47zm5.49-9.386h2.104v2.07c.29-.697.7-1.253 1.234-1.67.534-.417 1.206-.608 2.017-.573v2.225h-.122c-.463 0-.886.075-1.268.226-.383.152-.713.378-.99.68-.28.3-.493.68-.644 1.137-.15.458-.226.988-.226 1.59v3.494h-2.103V7.445zm12.67 3.946a3.595 3.595 0 0 0-.226-.948 2.425 2.425 0 0 0-.47-.764 2.227 2.227 0 0 0-.703-.513 2.17 2.17 0 0 0-.93-.19c-.648 0-1.184.222-1.607.668-.423.446-.68 1.028-.774 1.747h4.71zm-2.085 5.44c-.66 0-1.278-.117-1.85-.348a4.508 4.508 0 0 1-1.496-.974 4.522 4.522 0 0 1-1-1.503 5 5 0 0 1-.364-1.938v-.034c0-.66.11-1.28.33-1.86.22-.58.53-1.086.93-1.52a4.38 4.38 0 0 1 1.416-1.026 4.294 4.294 0 0 1 1.808-.374c.73 0 1.37.133 1.92.4a3.95 3.95 0 0 1 1.373 1.077c.365.452.64.977.826 1.573a6.32 6.32 0 0 1 .27 2.173c-.006.098-.014.2-.026.304H88.3c.117.753.415 1.33.896 1.73.48.4 1.063.6 1.747.6.52 0 .973-.094 1.355-.28.382-.185.76-.457 1.13-.816l1.234 1.095c-.44.52-.965.937-1.573 1.25-.61.313-1.336.47-2.182.47zm9.784-1.843a2.534 2.534 0 0 0 1.86-.808c.243-.262.437-.572.582-.93.144-.36.217-.76.217-1.2v-.035c0-.44-.072-.843-.216-1.208a2.852 2.852 0 0 0-.583-.93 2.56 2.56 0 0 0-.85-.59 2.608 2.608 0 0 0-2.025-.01c-.32.134-.6.328-.843.583a2.74 2.74 0 0 0-.573.93 3.42 3.42 0 0 0-.21 1.225v.035c0 .44.07.843.21 1.208.138.365.33.675.572.93.243.254.524.45.843.59.32.14.658.21 1.017.21zm-.504 1.825a4.14 4.14 0 0 1-1.582-.313 3.97 3.97 0 0 1-1.355-.922 4.665 4.665 0 0 1-.955-1.495c-.244-.59-.365-1.268-.365-2.033v-.035c0-.765.12-1.442.356-2.033a4.55 4.55 0 0 1 .947-1.495c.394-.405.85-.712 1.365-.92a4.204 4.204 0 0 1 1.59-.314c.753 0 1.38.162 1.877.487.498.324.915.7 1.25 1.13V3.934h2.104V16.62h-2.104v-1.53c-.336.476-.756.882-1.26 1.218-.504.336-1.127.504-1.868.504z" fill="#FFF"/><g transform="translate(0 10.138)"><mask id="b" fill="#fff"><use xlink:href="#a"/></mask><use fill="#FF6A39" xlink:href="#a"/><path d="M-.032-.008H10.31v10.154H-.03V-.008z" mask="url(#b)"/></g><g transform="translate(11.07 5.46)"><mask id="d" fill="#fff"><use xlink:href="#c"/></mask><path d="M-3.586.1l14.33-3.525 3.572 14.132-14.33 3.523" fill="#FF6A39" mask="url(#d)"/></g><g transform="translate(2.372)"><mask id="f" fill="#fff"><use xlink:href="#e"/></mask><path d="M-4.28 5.855L3.156-4.24l10.236 7.335L5.955 13.19" fill="#FF6A39" mask="url(#f)"/></g></g></svg>